<?xml version="1.0" encoding="UTF-8" standalone="no"?>
<!-- Created with Inkscape (http://www.inkscape.org/) -->

<svg
   xmlns:dc="http://purl.org/dc/elements/1.1/"
   xmlns:cc="http://creativecommons.org/ns#"
   xmlns:rdf="http://www.w3.org/1999/02/22-rdf-syntax-ns#"
   xmlns:svg="http://www.w3.org/2000/svg"
   xmlns="http://www.w3.org/2000/svg"
   xmlns:xlink="http://www.w3.org/1999/xlink"
   xmlns:sodipodi="http://sodipodi.sourceforge.net/DTD/sodipodi-0.dtd"
   xmlns:inkscape="http://www.inkscape.org/namespaces/inkscape"
   width="280"
   height="70"
   viewBox="0 0 280 70"
   version="1.1"
   id="svg8"
   inkscape:version="0.92.4 (5da689c313, 2019-01-14)"
   sodipodi:docname="ECAN_Logo_2.svg">
  <defs
     id="defs2">
    <clipPath
       id="SVGID_4_">
      <use
         height="100%"
         width="100%"
         y="0"
         x="0"
         style="overflow:visible"
         xlink:href="#SVGID_3_"
         overflow="visible"
         id="use7061" />
    </clipPath>
    <clipPath
       id="clipPath610">
      <use
         height="100%"
         width="100%"
         y="0"
         x="0"
         style="overflow:visible"
         xlink:href="#SVGID_3_"
         overflow="visible"
         id="use608" />
    </clipPath>
    <clipPath
       id="clipPath614">
      <use
         height="100%"
         width="100%"
         y="0"
         x="0"
         style="overflow:visible"
         xlink:href="#SVGID_3_"
         overflow="visible"
         id="use612" />
    </clipPath>
    <path
       inkscape:connector-curvature="0"
       id="SVGID_3_"
       d="m 144.135,519.384 c -2.132,0 -3.861,1.729 -3.861,3.861 0,2.132 1.729,3.861 3.861,3.861 2.132,0 3.861,-1.729 3.861,-3.861 0,-2.132 -1.728,-3.861 -3.861,-3.861 z m 0,-46.173 c 2.132,0 3.861,-1.729 3.861,-3.861 0,-2.132 -1.729,-3.861 -3.861,-3.861 -2.132,0 -3.861,1.729 -3.861,3.861 0,2.133 1.729,3.861 3.861,3.861 z m -25.268,12.957 c 1.847,1.066 4.208,0.434 5.274,-1.413 1.066,-1.847 0.433,-4.208 -1.413,-5.274 -1.847,-1.066 -4.208,-0.434 -5.274,1.413 -1.066,1.846 -0.433,4.208 1.413,5.274 z m 50.536,20.26 c -1.847,-1.066 -4.208,-0.434 -5.274,1.413 -1.066,1.847 -0.433,4.208 1.413,5.274 1.846,1.066 4.208,0.433 5.274,-1.413 1.067,-1.847 0.434,-4.208 -1.413,-5.274 z m -50.536,0 c -1.847,1.066 -2.48,3.428 -1.413,5.274 1.066,1.847 3.428,2.479 5.274,1.413 1.847,-1.066 2.48,-3.428 1.413,-5.274 -1.065,-1.847 -3.427,-2.48 -5.274,-1.413 z m 50.536,-20.26 c 1.847,-1.066 2.48,-3.428 1.413,-5.274 -1.066,-1.847 -3.428,-2.48 -5.274,-1.413 -1.847,1.066 -2.48,3.428 -1.413,5.274 1.066,1.846 3.428,2.479 5.274,1.413 z m -30.228,-3.009 c 1.542,-0.583 3.214,-0.902 4.96,-0.902 1.746,0 3.418,0.32 4.96,0.902 -0.948,-4.112 0.454,-6.781 4.309,-9.45 2.749,-1.903 5.848,-3.749 5.848,-3.749 -5.507,-0.629 -9.842,4.935 -15.117,4.935 -5.275,0 -9.611,-5.563 -15.117,-4.935 0,0 3.099,1.845 5.848,3.749 3.855,2.669 5.257,5.338 4.309,9.45 z m 9.921,26.277 c -1.542,0.583 -3.214,0.902 -4.96,0.902 -1.746,0 -3.418,-0.32 -4.96,-0.902 0.948,4.112 -0.454,6.781 -4.309,9.45 -2.749,1.903 -5.848,3.748 -5.848,3.748 5.507,0.629 9.842,-4.935 15.117,-4.935 5.275,0 9.611,5.563 15.117,4.935 0,0 -3.099,-1.845 -5.848,-3.748 -3.855,-2.669 -5.258,-5.338 -4.309,-9.45 z m -18.818,-15.41 c 0.561,-3.447 2.376,-6.472 4.962,-8.592 -4.038,-1.235 -5.649,-3.784 -6.032,-8.457 -0.274,-3.332 -0.322,-6.939 -0.322,-6.939 -3.298,4.455 -0.647,10.99 -3.285,15.559 -2.638,4.569 -9.623,5.541 -11.832,10.625 0,0 3.148,-1.761 6.17,-3.19 4.239,-2.005 7.252,-1.885 10.339,0.994 z m 27.714,4.544 c -0.561,3.447 -2.376,6.472 -4.962,8.592 4.038,1.234 5.649,3.784 6.032,8.457 0.274,3.332 0.322,6.939 0.322,6.939 3.298,-4.455 0.647,-10.991 3.285,-15.559 2.638,-4.568 9.623,-5.541 11.832,-10.625 0,0 -3.148,1.761 -6.17,3.19 -4.238,2.005 -7.251,1.885 -10.339,-0.994 z m -22.752,8.592 c -2.586,-2.12 -4.401,-5.145 -4.962,-8.592 -3.088,2.879 -6.1,2.999 -10.34,0.995 -3.023,-1.429 -6.17,-3.19 -6.17,-3.19 2.209,5.083 9.194,6.056 11.832,10.625 2.638,4.569 -0.013,11.105 3.285,15.559 0,0 0.049,-3.607 0.322,-6.939 0.385,-4.675 1.996,-7.224 6.033,-8.458 z m 17.79,-21.728 c 2.586,2.12 4.401,5.145 4.962,8.592 3.088,-2.878 6.1,-2.999 10.34,-0.995 3.023,1.429 6.17,3.19 6.17,3.19 -2.209,-5.083 -9.194,-6.056 -11.832,-10.625 -2.638,-4.569 0.013,-11.105 -3.285,-15.559 0,0 -0.049,3.607 -0.322,6.939 -0.384,4.674 -1.995,7.223 -6.033,8.458 z" />
    <clipPath
       id="SVGID_4_-2">
      <use
         height="100%"
         width="100%"
         y="0"
         x="0"
         style="overflow:visible"
         id="use7061-0"
         overflow="visible"
         xlink:href="#SVGID_3_-5" />
    </clipPath>
    <clipPath
       id="clipPath1282">
      <use
         height="100%"
         width="100%"
         y="0"
         x="0"
         style="overflow:visible"
         id="use1280"
         overflow="visible"
         xlink:href="#SVGID_3_-5" />
    </clipPath>
    <clipPath
       id="clipPath1286">
      <use
         height="100%"
         width="100%"
         y="0"
         x="0"
         style="overflow:visible"
         id="use1284"
         overflow="visible"
         xlink:href="#SVGID_3_-5" />
    </clipPath>
    <path
       inkscape:connector-curvature="0"
       d="m 144.135,519.384 c -2.132,0 -3.861,1.729 -3.861,3.861 0,2.132 1.729,3.861 3.861,3.861 2.132,0 3.861,-1.729 3.861,-3.861 0,-2.132 -1.728,-3.861 -3.861,-3.861 z m 0,-46.173 c 2.132,0 3.861,-1.729 3.861,-3.861 0,-2.132 -1.729,-3.861 -3.861,-3.861 -2.132,0 -3.861,1.729 -3.861,3.861 0,2.133 1.729,3.861 3.861,3.861 z m -25.268,12.957 c 1.847,1.066 4.208,0.434 5.274,-1.413 1.066,-1.847 0.433,-4.208 -1.413,-5.274 -1.847,-1.066 -4.208,-0.434 -5.274,1.413 -1.066,1.846 -0.433,4.208 1.413,5.274 z m 50.536,20.26 c -1.847,-1.066 -4.208,-0.434 -5.274,1.413 -1.066,1.847 -0.433,4.208 1.413,5.274 1.846,1.066 4.208,0.433 5.274,-1.413 1.067,-1.847 0.434,-4.208 -1.413,-5.274 z m -50.536,0 c -1.847,1.066 -2.48,3.428 -1.413,5.274 1.066,1.847 3.428,2.479 5.274,1.413 1.847,-1.066 2.48,-3.428 1.413,-5.274 -1.065,-1.847 -3.427,-2.48 -5.274,-1.413 z m 50.536,-20.26 c 1.847,-1.066 2.48,-3.428 1.413,-5.274 -1.066,-1.847 -3.428,-2.48 -5.274,-1.413 -1.847,1.066 -2.48,3.428 -1.413,5.274 1.066,1.846 3.428,2.479 5.274,1.413 z m -30.228,-3.009 c 1.542,-0.583 3.214,-0.902 4.96,-0.902 1.746,0 3.418,0.32 4.96,0.902 -0.948,-4.112 0.454,-6.781 4.309,-9.45 2.749,-1.903 5.848,-3.749 5.848,-3.749 -5.507,-0.629 -9.842,4.935 -15.117,4.935 -5.275,0 -9.611,-5.563 -15.117,-4.935 0,0 3.099,1.845 5.848,3.749 3.855,2.669 5.257,5.338 4.309,9.45 z m 9.921,26.277 c -1.542,0.583 -3.214,0.902 -4.96,0.902 -1.746,0 -3.418,-0.32 -4.96,-0.902 0.948,4.112 -0.454,6.781 -4.309,9.45 -2.749,1.903 -5.848,3.748 -5.848,3.748 5.507,0.629 9.842,-4.935 15.117,-4.935 5.275,0 9.611,5.563 15.117,4.935 0,0 -3.099,-1.845 -5.848,-3.748 -3.855,-2.669 -5.258,-5.338 -4.309,-9.45 z m -18.818,-15.41 c 0.561,-3.447 2.376,-6.472 4.962,-8.592 -4.038,-1.235 -5.649,-3.784 -6.032,-8.457 -0.274,-3.332 -0.322,-6.939 -0.322,-6.939 -3.298,4.455 -0.647,10.99 -3.285,15.559 -2.638,4.569 -9.623,5.541 -11.832,10.625 0,0 3.148,-1.761 6.17,-3.19 4.239,-2.005 7.252,-1.885 10.339,0.994 z m 27.714,4.544 c -0.561,3.447 -2.376,6.472 -4.962,8.592 4.038,1.234 5.649,3.784 6.032,8.457 0.274,3.332 0.322,6.939 0.322,6.939 3.298,-4.455 0.647,-10.991 3.285,-15.559 2.638,-4.568 9.623,-5.541 11.832,-10.625 0,0 -3.148,1.761 -6.17,3.19 -4.238,2.005 -7.251,1.885 -10.339,-0.994 z m -22.752,8.592 c -2.586,-2.12 -4.401,-5.145 -4.962,-8.592 -3.088,2.879 -6.1,2.999 -10.34,0.995 -3.023,-1.429 -6.17,-3.19 -6.17,-3.19 2.209,5.083 9.194,6.056 11.832,10.625 2.638,4.569 -0.013,11.105 3.285,15.559 0,0 0.049,-3.607 0.322,-6.939 0.385,-4.675 1.996,-7.224 6.033,-8.458 z m 17.79,-21.728 c 2.586,2.12 4.401,5.145 4.962,8.592 3.088,-2.878 6.1,-2.999 10.34,-0.995 3.023,1.429 6.17,3.19 6.17,3.19 -2.209,-5.083 -9.194,-6.056 -11.832,-10.625 -2.638,-4.569 0.013,-11.105 -3.285,-15.559 0,0 -0.049,3.607 -0.322,6.939 -0.384,4.674 -1.995,7.223 -6.033,8.458 z"
       id="SVGID_3_-5" />
  </defs>
  <sodipodi:namedview
     id="base"
     pagecolor="#ffffff"
     bordercolor="#666666"
     borderopacity="1.0"
     inkscape:pageopacity="0.0"
     inkscape:pageshadow="2"
     inkscape:zoom="3.06"
     inkscape:cx="187.53189"
     inkscape:cy="40.340901"
     inkscape:document-units="px"
     inkscape:current-layer="g6162"
     showgrid="false"
     inkscape:window-width="2880"
     inkscape:window-height="1526"
     inkscape:window-x="2869"
     inkscape:window-y="-11"
     inkscape:window-maximized="1"
     units="px"
     fit-margin-left="1"
     fit-margin-right="1" />
  <metadata
     id="metadata5">
    <rdf:RDF>
      <cc:Work
         rdf:about="">
        <dc:format>image/svg+xml</dc:format>
        <dc:type
           rdf:resource="http://purl.org/dc/dcmitype/StillImage" />
        <dc:title></dc:title>
      </cc:Work>
    </rdf:RDF>
  </metadata>
  <g
     inkscape:label="Layer 1"
     inkscape:groupmode="layer"
     id="layer1"
     transform="translate(0,-315.25)">
    <g
       transform="matrix(0.40948438,0,0,0.35259846,-44.469553,111.14324)"
       id="g761">
      <g
         id="g7170" />
      <g
         id="g6084">
        <g
           id="g6162"
           transform="matrix(3.5911969,0,0,2.7496111,-299.96439,-671.94581)">
          <g
             id="g6240">
            <g
               id="g7074"
               transform="matrix(1,0,0,1.0544699,7.1227792e-7,-28.725957)">
              <g
                 id="g7070">
                <defs
                   id="defs7059">
                  <path
                     id="path239"
                     d="m 144.135,519.384 c -2.132,0 -3.861,1.729 -3.861,3.861 0,2.132 1.729,3.861 3.861,3.861 2.132,0 3.861,-1.729 3.861,-3.861 0,-2.132 -1.728,-3.861 -3.861,-3.861 z m 0,-46.173 c 2.132,0 3.861,-1.729 3.861,-3.861 0,-2.132 -1.729,-3.861 -3.861,-3.861 -2.132,0 -3.861,1.729 -3.861,3.861 0,2.133 1.729,3.861 3.861,3.861 z m -25.268,12.957 c 1.847,1.066 4.208,0.434 5.274,-1.413 1.066,-1.847 0.433,-4.208 -1.413,-5.274 -1.847,-1.066 -4.208,-0.434 -5.274,1.413 -1.066,1.846 -0.433,4.208 1.413,5.274 z m 50.536,20.26 c -1.847,-1.066 -4.208,-0.434 -5.274,1.413 -1.066,1.847 -0.433,4.208 1.413,5.274 1.846,1.066 4.208,0.433 5.274,-1.413 1.067,-1.847 0.434,-4.208 -1.413,-5.274 z m -50.536,0 c -1.847,1.066 -2.48,3.428 -1.413,5.274 1.066,1.847 3.428,2.479 5.274,1.413 1.847,-1.066 2.48,-3.428 1.413,-5.274 -1.065,-1.847 -3.427,-2.48 -5.274,-1.413 z m 50.536,-20.26 c 1.847,-1.066 2.48,-3.428 1.413,-5.274 -1.066,-1.847 -3.428,-2.48 -5.274,-1.413 -1.847,1.066 -2.48,3.428 -1.413,5.274 1.066,1.846 3.428,2.479 5.274,1.413 z m -30.228,-3.009 c 1.542,-0.583 3.214,-0.902 4.96,-0.902 1.746,0 3.418,0.32 4.96,0.902 -0.948,-4.112 0.454,-6.781 4.309,-9.45 2.749,-1.903 5.848,-3.749 5.848,-3.749 -5.507,-0.629 -9.842,4.935 -15.117,4.935 -5.275,0 -9.611,-5.563 -15.117,-4.935 0,0 3.099,1.845 5.848,3.749 3.855,2.669 5.257,5.338 4.309,9.45 z m 9.921,26.277 c -1.542,0.583 -3.214,0.902 -4.96,0.902 -1.746,0 -3.418,-0.32 -4.96,-0.902 0.948,4.112 -0.454,6.781 -4.309,9.45 -2.749,1.903 -5.848,3.748 -5.848,3.748 5.507,0.629 9.842,-4.935 15.117,-4.935 5.275,0 9.611,5.563 15.117,4.935 0,0 -3.099,-1.845 -5.848,-3.748 -3.855,-2.669 -5.258,-5.338 -4.309,-9.45 z m -18.818,-15.41 c 0.561,-3.447 2.376,-6.472 4.962,-8.592 -4.038,-1.235 -5.649,-3.784 -6.032,-8.457 -0.274,-3.332 -0.322,-6.939 -0.322,-6.939 -3.298,4.455 -0.647,10.99 -3.285,15.559 -2.638,4.569 -9.623,5.541 -11.832,10.625 0,0 3.148,-1.761 6.17,-3.19 4.239,-2.005 7.252,-1.885 10.339,0.994 z m 27.714,4.544 c -0.561,3.447 -2.376,6.472 -4.962,8.592 4.038,1.234 5.649,3.784 6.032,8.457 0.274,3.332 0.322,6.939 0.322,6.939 3.298,-4.455 0.647,-10.991 3.285,-15.559 2.638,-4.568 9.623,-5.541 11.832,-10.625 0,0 -3.148,1.761 -6.17,3.19 -4.238,2.005 -7.251,1.885 -10.339,-0.994 z m -22.752,8.592 c -2.586,-2.12 -4.401,-5.145 -4.962,-8.592 -3.088,2.879 -6.1,2.999 -10.34,0.995 -3.023,-1.429 -6.17,-3.19 -6.17,-3.19 2.209,5.083 9.194,6.056 11.832,10.625 2.638,4.569 -0.013,11.105 3.285,15.559 0,0 0.049,-3.607 0.322,-6.939 0.385,-4.675 1.996,-7.224 6.033,-8.458 z m 17.79,-21.728 c 2.586,2.12 4.401,5.145 4.962,8.592 3.088,-2.878 6.1,-2.999 10.34,-0.995 3.023,1.429 6.17,3.19 6.17,3.19 -2.209,-5.083 -9.194,-6.056 -11.832,-10.625 -2.638,-4.569 0.013,-11.105 -3.285,-15.559 0,0 -0.049,3.607 -0.322,6.939 -0.384,4.674 -1.995,7.223 -6.033,8.458 z"
                     inkscape:connector-curvature="0" />
                </defs>
                <clipPath
                   id="clipPath1292">
                  <use
                     xlink:href="#SVGID_3_-5"
                     overflow="visible"
                     id="use1290"
                     style="overflow:visible"
                     x="0"
                     y="0"
                     width="100%"
                     height="100%" />
                </clipPath>
                <rect
                   x="113.06"
                   y="465.22198"
                   clip-path="url(#SVGID_4_-2)"
                   width="62.151001"
                   height="20.716999"
                   id="rect7064"
                   style="fill:#00b22d" />
                <rect
                   x="113.06"
                   y="485.939"
                   clip-path="url(#SVGID_4_-2)"
                   width="62.151001"
                   height="20.716999"
                   id="rect7066"
                   style="fill:#ffc800" />
                <rect
                   x="113.06"
                   y="506.65601"
                   clip-path="url(#SVGID_4_-2)"
                   width="62.151001"
                   height="20.716999"
                   id="rect7068"
                   style="fill:#ff0000" />
              </g>
              <path
                 d="m 144.135,483.571 c -7.029,0 -12.727,5.698 -12.727,12.727 0,7.029 5.698,12.727 12.727,12.727 7.029,0 12.727,-5.698 12.727,-12.727 0,-7.029 -5.698,-12.727 -12.727,-12.727 z m -9.603,7.055 4.096,-0.447 0.84,-4.034 1.691,3.757 4.096,-0.447 -3.051,2.77 1.691,3.757 -3.577,-2.046 -3.051,2.769 0.84,-4.034 z m 9.476,12.704 0.017,4.12 -2.435,-3.324 -3.914,1.289 2.408,-3.343 -2.435,-3.324 3.924,1.257 2.409,-3.343 0.017,4.12 3.924,1.258 z m 7.154,-6.411 -1.661,3.771 -0.873,-4.027 -4.1,-0.414 3.56,-2.075 -0.873,-4.027 3.073,2.745 3.56,-2.075 -1.661,3.771 3.073,2.745 z"
                 id="path7072"
                 inkscape:connector-curvature="0" />
            </g>
            <g
               id="g7168"
               transform="matrix(1.1670094,0,0,1,-30.113272,-2.6588315e-6)">
              <g
                 id="g7084">
                <path
                   d="m 187.126,485.417 v 4.35 h 4.894 c 0.736,0 1.355,0.21 1.857,0.628 0.502,0.418 0.753,0.998 0.753,1.74 0,0.708 -0.254,1.272 -0.761,1.693 -0.508,0.421 -1.124,0.632 -1.849,0.632 h -4.894 v 4.425 h 5.413 c 0.758,0 1.381,0.207 1.87,0.619 0.488,0.413 0.732,0.993 0.732,1.74 0,0.714 -0.248,1.281 -0.745,1.702 -0.496,0.422 -1.115,0.632 -1.857,0.632 h -7.47 c -1.009,0 -1.793,-0.278 -2.351,-0.837 -0.558,-0.558 -0.836,-1.341 -0.836,-2.351 v -16.479 c 0,-0.992 0.28,-1.771 0.84,-2.338 0.56,-0.567 1.343,-0.849 2.347,-0.849 h 7.47 c 0.758,0 1.381,0.209 1.87,0.627 0.488,0.418 0.732,0.998 0.732,1.74 0,0.708 -0.248,1.272 -0.745,1.693 -0.496,0.422 -1.115,0.632 -1.857,0.632 h -5.413 z"
                   id="path7076"
                   inkscape:connector-curvature="0" />
                <path
                   d="m 204.695,491.481 c 0,-1.6 0.273,-3.095 0.82,-4.483 0.546,-1.389 1.328,-2.596 2.343,-3.622 1.015,-1.026 2.218,-1.816 3.607,-2.372 1.389,-0.555 2.901,-0.832 4.536,-0.832 0.893,0 1.866,0.113 2.921,0.339 1.055,0.226 1.968,0.604 2.741,1.134 0.773,0.529 1.159,1.216 1.159,2.058 0,0.708 -0.175,1.297 -0.527,1.765 -0.352,0.469 -0.859,0.703 -1.522,0.703 -0.407,0 -1.06,-0.17 -1.958,-0.511 -0.97,-0.39 -1.86,-0.585 -2.668,-0.585 -1.316,0 -2.411,0.311 -3.284,0.933 -0.873,0.622 -1.521,1.46 -1.945,2.514 -0.424,1.054 -0.636,2.236 -0.636,3.547 0,2.621 0.653,4.54 1.958,5.756 1.026,0.959 2.317,1.438 3.873,1.438 0.854,0 1.548,-0.114 2.083,-0.343 l 1.548,-0.72 c 0.413,-0.162 0.755,-0.242 1.029,-0.242 0.703,0 1.255,0.245 1.656,0.735 0.401,0.491 0.603,1.068 0.603,1.732 0,0.986 -0.539,1.798 -1.616,2.434 -1.445,0.87 -3.306,1.306 -5.582,1.306 -1.428,0 -2.809,-0.253 -4.143,-0.758 -1.333,-0.504 -2.502,-1.236 -3.507,-2.195 -2.326,-2.21 -3.489,-5.452 -3.489,-9.731 z"
                   id="path7078"
                   inkscape:connector-curvature="0" />
                <path
                   d="m 246.3,499.229 h -8.763 l -0.552,1.982 c -0.479,1.807 -1.257,2.71 -2.333,2.71 -0.736,0 -1.391,-0.18 -1.965,-0.539 -0.574,-0.36 -0.911,-0.877 -1.012,-1.552 0,-0.714 0.07,-1.264 0.209,-1.648 l 6.163,-16.956 c 0.318,-0.881 0.818,-1.593 1.501,-2.134 0.683,-0.54 1.473,-0.811 2.371,-0.811 0.898,0 1.688,0.268 2.371,0.803 0.683,0.535 1.183,1.249 1.501,2.142 l 6.163,16.956 c 0.139,0.401 0.209,0.951 0.209,1.648 -0.078,0.669 -0.406,1.185 -0.983,1.547 -0.577,0.363 -1.245,0.544 -2.002,0.544 -0.496,0 -0.939,-0.218 -1.33,-0.652 -0.391,-0.434 -0.666,-0.937 -0.828,-1.506 z m -1.572,-4.694 -2.776,-8.708 -2.776,8.708 z"
                   id="path7080"
                   inkscape:connector-curvature="0" />
                <path
                   d="m 266.961,489.733 v 11.276 c 0,0.825 -0.23,1.518 -0.69,2.075 -0.46,0.557 -1.1,0.836 -1.92,0.836 -0.809,0 -1.45,-0.28 -1.924,-0.841 -0.474,-0.561 -0.711,-1.25 -0.711,-2.07 v -17.918 c 0,-0.77 0.24,-1.414 0.719,-1.933 0.479,-0.519 1.096,-0.778 1.849,-0.778 0.864,0 1.595,0.388 2.192,1.163 l 10.105,12.715 v -10.967 c 0,-0.819 0.235,-1.51 0.704,-2.07 0.469,-0.56 1.114,-0.841 1.936,-0.841 0.804,0 1.439,0.279 1.906,0.837 0.467,0.558 0.7,1.249 0.7,2.074 v 17.617 c 0,0.977 -0.229,1.718 -0.687,2.226 -0.525,0.524 -1.109,0.786 -1.751,0.786 -0.905,0 -1.601,-0.332 -2.086,-0.995 z"
                   id="path7082"
                   inkscape:connector-curvature="0" />
              </g>
              <g
                 transform="matrix(1,0,0,3.2878325,0,-1163.1638)"
                 id="g7166">
                <path
                   d="m 181.928,508.498 h 2.235 v 0.473 h -1.702 v 1.356 h 1.605 v 0.473 h -1.605 v 1.551 h 1.775 v 0.473 h -2.308 z"
                   id="path7086"
                   inkscape:connector-curvature="0" />
                <path
                   d="m 184.843,508.631 h 0.509 v 0.945 h 0.563 v 0.4 h -0.563 v 2.083 c 0,0.261 0.066,0.364 0.333,0.364 0.109,0 0.169,-0.013 0.224,-0.019 v 0.418 c -0.066,0.012 -0.2,0.036 -0.412,0.036 -0.527,0 -0.654,-0.218 -0.654,-0.642 v -2.241 h -0.472 v -0.4 h 0.472 z"
                   id="path7088"
                   inkscape:connector-curvature="0" />
                <path
                   d="m 186.237,508.498 h 0.509 v 1.448 h 0.012 c 0.133,-0.267 0.491,-0.455 0.782,-0.455 0.836,0 0.836,0.648 0.836,1.03 v 2.302 h -0.509 v -2.241 c 0,-0.248 -0.019,-0.654 -0.479,-0.654 -0.273,0 -0.643,0.182 -0.643,0.654 v 2.241 h -0.509 v -4.325 z"
                   id="path7090"
                   inkscape:connector-curvature="0" />
                <path
                   d="m 189.049,508.498 h 0.509 v 0.581 h -0.509 z m 0,1.078 h 0.509 v 3.247 h -0.509 z"
                   id="path7092"
                   inkscape:connector-curvature="0" />
                <path
                   d="m 191.243,509.491 c 0.939,0 1.169,0.794 1.169,1.709 0,0.914 -0.236,1.708 -1.169,1.708 -0.939,0 -1.169,-0.794 -1.169,-1.708 0,-0.915 0.236,-1.709 1.169,-1.709 z m 0.636,1.709 c 0,-0.703 -0.103,-1.309 -0.648,-1.309 -0.515,0 -0.624,0.605 -0.624,1.309 0,0.702 0.103,1.308 0.624,1.308 0.539,0 0.648,-0.606 0.648,-1.308 z"
                   id="path7094"
                   inkscape:connector-curvature="0" />
                <path
                   d="m 192.898,509.576 h 0.485 v 0.4 h 0.012 c 0.066,-0.243 0.351,-0.485 0.703,-0.485 0.769,0 1.06,0.685 1.06,1.648 0,0.738 -0.218,1.769 -1.06,1.769 -0.291,0 -0.563,-0.176 -0.679,-0.454 h -0.012 v 1.436 h -0.509 z m 1.133,2.896 c 0.473,0 0.594,-0.496 0.594,-1.332 0,-0.715 -0.121,-1.212 -0.594,-1.212 -0.563,0 -0.654,0.533 -0.654,1.272 -0.001,0.63 0.109,1.272 0.654,1.272 z"
                   id="path7096"
                   inkscape:connector-curvature="0" />
                <path
                   d="m 195.71,508.498 h 0.509 v 0.581 h -0.509 z m 0,1.078 h 0.509 v 3.247 h -0.509 z"
                   id="path7098"
                   inkscape:connector-curvature="0" />
                <path
                   d="m 196.813,510.558 c 0,-0.739 0.315,-1.066 1.09,-1.066 0.987,0 0.987,0.594 0.987,0.934 v 1.811 c 0,0.134 0,0.261 0.158,0.261 0.066,0 0.097,-0.012 0.121,-0.03 v 0.363 c -0.036,0.006 -0.169,0.03 -0.297,0.03 -0.194,0 -0.436,0 -0.46,-0.418 H 198.4 c -0.163,0.291 -0.479,0.467 -0.781,0.467 -0.606,0 -0.884,-0.363 -0.884,-0.945 0,-0.454 0.194,-0.77 0.612,-0.896 l 0.685,-0.206 c 0.369,-0.115 0.369,-0.218 0.369,-0.49 0,-0.303 -0.182,-0.479 -0.521,-0.479 -0.558,0 -0.558,0.521 -0.558,0.636 v 0.03 h -0.509 z m 1.569,0.497 c -0.188,0.199 -0.636,0.242 -0.866,0.381 -0.164,0.104 -0.248,0.23 -0.248,0.516 0,0.327 0.115,0.557 0.46,0.557 0.333,0 0.654,-0.284 0.654,-0.617 z"
                   id="path7100"
                   inkscape:connector-curvature="0" />
                <path
                   d="m 199.559,509.576 h 0.485 v 0.382 h 0.012 c 0.133,-0.297 0.472,-0.467 0.787,-0.467 0.854,0 0.854,0.648 0.854,1.03 v 2.302 h -0.509 v -2.241 c 0,-0.248 -0.019,-0.654 -0.479,-0.654 -0.273,0 -0.643,0.182 -0.643,0.654 v 2.241 h -0.509 v -3.247 z"
                   id="path7102"
                   inkscape:connector-curvature="0" />
                <path
                   d="m 206.437,511.339 c -0.048,0.818 -0.37,1.569 -1.314,1.569 -1.23,0 -1.393,-1.157 -1.393,-2.248 0,-1.09 0.2,-2.247 1.393,-2.247 0.884,0 1.254,0.497 1.278,1.345 h -0.558 c -0.012,-0.49 -0.169,-0.908 -0.721,-0.908 -0.739,0 -0.836,0.812 -0.836,1.811 0,1 0.097,1.812 0.836,1.812 0.648,0 0.739,-0.605 0.757,-1.133 h 0.558 z"
                   id="path7104"
                   inkscape:connector-curvature="0" />
                <path
                   d="m 207.905,509.491 c 0.939,0 1.169,0.794 1.169,1.709 0,0.914 -0.236,1.708 -1.169,1.708 -0.939,0 -1.169,-0.794 -1.169,-1.708 0,-0.915 0.236,-1.709 1.169,-1.709 z m 0.636,1.709 c 0,-0.703 -0.103,-1.309 -0.648,-1.309 -0.515,0 -0.624,0.605 -0.624,1.309 0,0.702 0.103,1.308 0.624,1.308 0.539,0 0.648,-0.606 0.648,-1.308 z"
                   id="path7106"
                   inkscape:connector-curvature="0" />
                <path
                   d="m 209.609,509.576 h 0.484 v 0.382 h 0.012 c 0.133,-0.297 0.473,-0.467 0.788,-0.467 0.375,0 0.6,0.146 0.703,0.516 0.146,-0.285 0.436,-0.516 0.769,-0.516 0.854,0 0.854,0.648 0.854,1.03 v 2.302 h -0.509 v -2.241 c 0,-0.248 -0.019,-0.654 -0.437,-0.654 -0.236,0 -0.605,0.146 -0.605,0.654 v 2.241 h -0.509 v -2.241 c 0,-0.248 -0.019,-0.654 -0.437,-0.654 -0.236,0 -0.605,0.146 -0.605,0.654 v 2.241 h -0.509 v -3.247 z"
                   id="path7108"
                   inkscape:connector-curvature="0" />
                <path
                   d="m 213.96,509.576 h 0.484 v 0.382 h 0.012 c 0.133,-0.297 0.473,-0.467 0.788,-0.467 0.375,0 0.6,0.146 0.703,0.516 0.146,-0.285 0.436,-0.516 0.769,-0.516 0.854,0 0.854,0.648 0.854,1.03 v 2.302 h -0.509 v -2.241 c 0,-0.248 -0.019,-0.654 -0.437,-0.654 -0.236,0 -0.605,0.146 -0.605,0.654 v 2.241 h -0.509 v -2.241 c 0,-0.248 -0.019,-0.654 -0.437,-0.654 -0.236,0 -0.605,0.146 -0.605,0.654 v 2.241 h -0.509 v -3.247 z"
                   id="path7110"
                   inkscape:connector-curvature="0" />
                <path
                   d="m 220.402,512.823 h -0.485 v -0.382 h -0.012 c -0.133,0.297 -0.472,0.467 -0.787,0.467 -0.854,0 -0.854,-0.648 -0.854,-1.03 v -2.302 h 0.509 v 2.241 c 0,0.249 0.019,0.654 0.479,0.654 0.272,0 0.642,-0.182 0.642,-0.654 v -2.241 h 0.509 v 3.247 z"
                   id="path7112"
                   inkscape:connector-curvature="0" />
                <path
                   d="m 221.046,509.576 h 0.485 v 0.382 h 0.012 c 0.133,-0.297 0.472,-0.467 0.787,-0.467 0.854,0 0.854,0.648 0.854,1.03 v 2.302 h -0.509 v -2.241 c 0,-0.248 -0.019,-0.654 -0.479,-0.654 -0.273,0 -0.643,0.182 -0.643,0.654 v 2.241 h -0.509 v -3.247 z"
                   id="path7114"
                   inkscape:connector-curvature="0" />
                <path
                   d="m 223.858,508.498 h 0.509 v 0.581 h -0.509 z m 0,1.078 h 0.509 v 3.247 h -0.509 z"
                   id="path7116"
                   inkscape:connector-curvature="0" />
                <path
                   d="m 225.191,508.631 h 0.509 v 0.945 h 0.563 v 0.4 H 225.7 v 2.083 c 0,0.261 0.066,0.364 0.333,0.364 0.109,0 0.169,-0.013 0.224,-0.019 v 0.418 c -0.066,0.012 -0.2,0.036 -0.412,0.036 -0.527,0 -0.654,-0.218 -0.654,-0.642 v -2.241 h -0.472 v -0.4 h 0.472 z"
                   id="path7118"
                   inkscape:connector-curvature="0" />
                <path
                   d="m 226.313,509.576 h 0.557 l 0.643,2.604 h 0.012 l 0.569,-2.604 h 0.558 l -0.939,3.465 c -0.121,0.448 -0.254,0.849 -0.866,0.849 -0.2,0 -0.285,-0.013 -0.37,-0.019 v -0.399 c 0.073,0.012 0.169,0.018 0.297,0.018 0.236,0 0.339,-0.139 0.4,-0.314 l 0.097,-0.285 z"
                   id="path7120"
                   inkscape:connector-curvature="0" />
                <path
                   d="m 231.095,508.498 h 0.715 l 1.163,4.325 h -0.557 l -0.309,-1.188 h -1.381 l -0.321,1.188 h -0.557 z m -0.261,2.702 h 1.163 l -0.551,-2.091 h -0.012 z"
                   id="path7122"
                   inkscape:connector-curvature="0" />
                <path
                   d="m 234.628,510.527 c 0,-0.412 -0.109,-0.636 -0.479,-0.636 -0.164,0 -0.527,0.042 -0.527,0.496 0,0.382 0.4,0.455 0.8,0.588 0.394,0.134 0.793,0.272 0.793,0.915 0,0.685 -0.442,1.018 -1.048,1.018 -1.103,0 -1.115,-0.818 -1.115,-1.151 h 0.509 c 0,0.394 0.109,0.751 0.606,0.751 0.164,0 0.539,-0.078 0.539,-0.539 0,-0.436 -0.4,-0.526 -0.793,-0.66 -0.394,-0.133 -0.8,-0.248 -0.8,-0.921 0,-0.605 0.473,-0.896 1.036,-0.896 0.945,0 0.981,0.654 0.987,1.036 h -0.508 z"
                   id="path7124"
                   inkscape:connector-curvature="0" />
                <path
                   d="m 237.071,510.527 c 0,-0.412 -0.109,-0.636 -0.479,-0.636 -0.164,0 -0.527,0.042 -0.527,0.496 0,0.382 0.4,0.455 0.8,0.588 0.394,0.134 0.793,0.272 0.793,0.915 0,0.685 -0.442,1.018 -1.048,1.018 -1.103,0 -1.115,-0.818 -1.115,-1.151 h 0.509 c 0,0.394 0.109,0.751 0.606,0.751 0.164,0 0.539,-0.078 0.539,-0.539 0,-0.436 -0.4,-0.526 -0.793,-0.66 -0.394,-0.133 -0.8,-0.248 -0.8,-0.921 0,-0.605 0.473,-0.896 1.036,-0.896 0.945,0 0.981,0.654 0.987,1.036 h -0.508 z"
                   id="path7126"
                   inkscape:connector-curvature="0" />
                <path
                   d="m 239.132,509.491 c 0.939,0 1.169,0.794 1.169,1.709 0,0.914 -0.236,1.708 -1.169,1.708 -0.939,0 -1.169,-0.794 -1.169,-1.708 0,-0.915 0.236,-1.709 1.169,-1.709 z m 0.636,1.709 c 0,-0.703 -0.103,-1.309 -0.648,-1.309 -0.515,0 -0.624,0.605 -0.624,1.309 0,0.702 0.103,1.308 0.624,1.308 0.539,0 0.648,-0.606 0.648,-1.308 z"
                   id="path7128"
                   inkscape:connector-curvature="0" />
                <path
                   d="m 242.332,510.563 c 0,-0.314 -0.127,-0.672 -0.515,-0.672 -0.315,0 -0.636,0.157 -0.636,1.345 0,0.424 0.006,1.271 0.618,1.271 0.436,0 0.533,-0.46 0.533,-0.812 h 0.509 c 0,0.515 -0.254,1.212 -1.066,1.212 -0.794,0 -1.127,-0.552 -1.127,-1.666 0,-0.812 0.158,-1.751 1.157,-1.751 0.884,0 1.036,0.697 1.036,1.072 h -0.509 z"
                   id="path7130"
                   inkscape:connector-curvature="0" />
                <path
                   d="m 243.375,508.498 h 0.509 v 0.581 h -0.509 z m 0,1.078 h 0.509 v 3.247 h -0.509 z"
                   id="path7132"
                   inkscape:connector-curvature="0" />
                <path
                   d="m 244.479,510.558 c 0,-0.739 0.315,-1.066 1.09,-1.066 0.987,0 0.987,0.594 0.987,0.934 v 1.811 c 0,0.134 0,0.261 0.158,0.261 0.066,0 0.097,-0.012 0.121,-0.03 v 0.363 c -0.036,0.006 -0.169,0.03 -0.297,0.03 -0.194,0 -0.436,0 -0.46,-0.418 h -0.012 c -0.163,0.291 -0.479,0.467 -0.781,0.467 -0.606,0 -0.884,-0.363 -0.884,-0.945 0,-0.454 0.194,-0.77 0.612,-0.896 l 0.685,-0.206 c 0.369,-0.115 0.369,-0.218 0.369,-0.49 0,-0.303 -0.182,-0.479 -0.521,-0.479 -0.558,0 -0.558,0.521 -0.558,0.636 v 0.03 h -0.509 z m 1.568,0.497 c -0.188,0.199 -0.636,0.242 -0.866,0.381 -0.164,0.104 -0.248,0.23 -0.248,0.516 0,0.327 0.115,0.557 0.46,0.557 0.333,0 0.654,-0.284 0.654,-0.617 z"
                   id="path7134"
                   inkscape:connector-curvature="0" />
                <path
                   d="m 247.436,508.631 h 0.509 v 0.945 h 0.563 v 0.4 h -0.563 v 2.083 c 0,0.261 0.066,0.364 0.333,0.364 0.109,0 0.169,-0.013 0.224,-0.019 v 0.418 c -0.066,0.012 -0.2,0.036 -0.412,0.036 -0.527,0 -0.654,-0.218 -0.654,-0.642 v -2.241 h -0.472 v -0.4 h 0.472 z"
                   id="path7136"
                   inkscape:connector-curvature="0" />
                <path
                   d="m 248.86,508.498 h 0.509 v 0.581 h -0.509 z m 0,1.078 h 0.509 v 3.247 h -0.509 z"
                   id="path7138"
                   inkscape:connector-curvature="0" />
                <path
                   d="m 251.054,509.491 c 0.939,0 1.169,0.794 1.169,1.709 0,0.914 -0.236,1.708 -1.169,1.708 -0.939,0 -1.169,-0.794 -1.169,-1.708 0,-0.915 0.236,-1.709 1.169,-1.709 z m 0.636,1.709 c 0,-0.703 -0.103,-1.309 -0.648,-1.309 -0.515,0 -0.624,0.605 -0.624,1.309 0,0.702 0.103,1.308 0.624,1.308 0.539,0 0.648,-0.606 0.648,-1.308 z"
                   id="path7140"
                   inkscape:connector-curvature="0" />
                <path
                   d="m 252.709,509.576 h 0.485 v 0.382 h 0.012 c 0.133,-0.297 0.472,-0.467 0.787,-0.467 0.854,0 0.854,0.648 0.854,1.03 v 2.302 h -0.509 v -2.241 c 0,-0.248 -0.019,-0.654 -0.479,-0.654 -0.273,0 -0.643,0.182 -0.643,0.654 v 2.241 h -0.509 v -3.247 z"
                   id="path7142"
                   inkscape:connector-curvature="0" />
                <path
                   d="m 256.952,508.498 h 0.509 v 0.581 h -0.509 z m 0,1.078 h 0.509 v 3.247 h -0.509 z"
                   id="path7144"
                   inkscape:connector-curvature="0" />
                <path
                   d="m 258.134,509.576 h 0.485 v 0.382 h 0.012 c 0.133,-0.297 0.472,-0.467 0.787,-0.467 0.854,0 0.854,0.648 0.854,1.03 v 2.302 h -0.509 v -2.241 c 0,-0.248 -0.019,-0.654 -0.479,-0.654 -0.273,0 -0.643,0.182 -0.643,0.654 v 2.241 h -0.509 v -3.247 z"
                   id="path7146"
                   inkscape:connector-curvature="0" />
                <path
                   d="m 262.365,508.498 h 0.69 l 1.43,3.61 h 0.012 v -3.61 h 0.533 v 4.325 h -0.733 l -1.387,-3.501 h -0.012 v 3.501 h -0.533 z"
                   id="path7148"
                   inkscape:connector-curvature="0" />
                <path
                   d="m 265.613,510.558 c 0,-0.739 0.315,-1.066 1.09,-1.066 0.987,0 0.987,0.594 0.987,0.934 v 1.811 c 0,0.134 0,0.261 0.158,0.261 0.066,0 0.097,-0.012 0.121,-0.03 v 0.363 c -0.036,0.006 -0.169,0.03 -0.297,0.03 -0.194,0 -0.436,0 -0.46,-0.418 H 267.2 c -0.163,0.291 -0.479,0.467 -0.781,0.467 -0.606,0 -0.884,-0.363 -0.884,-0.945 0,-0.454 0.194,-0.77 0.612,-0.896 l 0.685,-0.206 c 0.369,-0.115 0.369,-0.218 0.369,-0.49 0,-0.303 -0.182,-0.479 -0.521,-0.479 -0.558,0 -0.558,0.521 -0.558,0.636 v 0.03 h -0.509 z m 1.569,0.497 c -0.188,0.199 -0.636,0.242 -0.866,0.381 -0.164,0.104 -0.248,0.23 -0.248,0.516 0,0.327 0.115,0.557 0.46,0.557 0.333,0 0.654,-0.284 0.654,-0.617 z"
                   id="path7150"
                   inkscape:connector-curvature="0" />
                <path
                   d="m 269.752,510.527 c 0,-0.412 -0.109,-0.636 -0.479,-0.636 -0.164,0 -0.527,0.042 -0.527,0.496 0,0.382 0.4,0.455 0.8,0.588 0.394,0.134 0.793,0.272 0.793,0.915 0,0.685 -0.442,1.018 -1.048,1.018 -1.103,0 -1.115,-0.818 -1.115,-1.151 h 0.509 c 0,0.394 0.109,0.751 0.606,0.751 0.164,0 0.539,-0.078 0.539,-0.539 0,-0.436 -0.4,-0.526 -0.793,-0.66 -0.394,-0.133 -0.8,-0.248 -0.8,-0.921 0,-0.605 0.473,-0.896 1.036,-0.896 0.945,0 0.981,0.654 0.987,1.036 h -0.508 z"
                   id="path7152"
                   inkscape:connector-curvature="0" />
                <path
                   d="m 270.801,508.498 h 0.509 v 1.448 h 0.012 c 0.133,-0.267 0.491,-0.455 0.782,-0.455 0.836,0 0.836,0.648 0.836,1.03 v 2.302 h -0.509 v -2.241 c 0,-0.248 -0.019,-0.654 -0.479,-0.654 -0.273,0 -0.643,0.182 -0.643,0.654 v 2.241 H 270.8 v -4.325 z"
                   id="path7154"
                   inkscape:connector-curvature="0" />
                <path
                   d="m 273.311,509.576 h 0.557 l 0.606,2.604 h 0.012 l 0.605,-2.604 h 0.558 l -0.878,3.247 h -0.582 z"
                   id="path7156"
                   inkscape:connector-curvature="0" />
                <path
                   d="m 276.05,508.498 h 0.509 v 0.581 h -0.509 z m 0,1.078 h 0.509 v 3.247 h -0.509 z"
                   id="path7158"
                   inkscape:connector-curvature="0" />
                <path
                   d="m 277.263,508.498 h 0.509 v 4.325 h -0.509 z"
                   id="path7160"
                   inkscape:connector-curvature="0" />
                <path
                   d="m 278.475,508.498 h 0.509 v 4.325 h -0.509 z"
                   id="path7162"
                   inkscape:connector-curvature="0" />
                <path
                   d="m 280.081,511.261 c 0,0.496 0,1.247 0.624,1.247 0.484,0 0.551,-0.509 0.551,-0.751 h 0.509 c 0,0.346 -0.206,1.151 -1.09,1.151 -0.794,0 -1.127,-0.552 -1.127,-1.666 0,-0.812 0.158,-1.751 1.157,-1.751 0.993,0 1.084,0.866 1.084,1.563 v 0.206 h -1.708 z m 1.175,-0.401 v -0.176 c 0,-0.363 -0.115,-0.793 -0.563,-0.793 -0.533,0 -0.594,0.654 -0.594,0.848 v 0.121 z"
                   id="path7164"
                   inkscape:connector-curvature="0" />
              </g>
            </g>
            <g
               id="text5877-2-9"
               style="font-style:normal;font-variant:normal;font-weight:400;font-size:7.41504288px;line-height:125%;font-family:Nyala;text-align:start;letter-spacing:0px;word-spacing:0px;text-anchor:start;fill:#000000;fill-opacity:1;stroke:none;stroke-width:0.50271481"
               transform="matrix(1.3166423,0,0,2.1306268,-30.113273,-670.72707)"
               aria-label="የኢትዮጵያዊያን   ማህበር   በናሽቪል ">
              <path
                 inkscape:connector-curvature="0"
                 id="path507"
                 style="font-style:normal;font-variant:normal;font-weight:400;font-size:7.41504288px;font-family:Nyala;fill:#000000;stroke-width:0.50271481"
                 d="m 160.41505,534.21014 q 0,0.24258 0.0109,0.48154 0.0109,0.23896 0.0471,0.4381 h 0.63361 q 0.36931,0 0.56482,-0.15569 0.19551,-0.15569 0.19551,-0.51413 v -0.19189 q 0,-0.18465 -0.0543,-0.31138 -0.0507,-0.12672 -0.14844,-0.20275 -0.0978,-0.0797 -0.23534,-0.11586 -0.13759,-0.0362 -0.30413,-0.0362 -0.34034,0 -0.525,0.13759 -0.18465,0.13396 -0.18465,0.47068 z m -0.48516,1.27808 q -0.0398,-0.17017 -0.0616,-0.30051 -0.0217,-0.13035 -0.0326,-0.26431 -0.0109,-0.13396 -0.0145,-0.28603 -0.004,-0.15569 -0.004,-0.3693 0,-0.61551 0.3331,-0.89792 0.33672,-0.28603 1.01739,-0.28603 0.65172,0 0.97033,0.27517 0.31862,0.27155 0.31862,0.86171 v 0.28965 q 0,0.59016 -0.34396,0.86533 -0.34396,0.27517 -1.05361,0.27517 h -0.48878 l 0.61189,2.70822 h -0.60827 z" />
              <path
                 inkscape:connector-curvature="0"
                 id="path509"
                 style="font-style:normal;font-variant:normal;font-weight:400;font-size:7.41504288px;font-family:Nyala;fill:#000000;stroke-width:0.50271481"
                 d="m 165.73263,538.35937 -0.56482,-2.30995 h -0.97395 q -0.27878,0.58292 -0.45619,1.14773 -0.17379,0.56482 -0.24621,1.16222 h -0.60826 q 0.13396,-0.93412 0.46706,-1.78496 0.3331,-0.85447 0.83636,-1.64377 h -0.7205 v -1.76324 h 0.60826 v 1.22739 h 1.08257 q -0.19551,0.29327 -0.36568,0.57206 -0.17017,0.27517 -0.32224,0.55033 h 1.18033 l 0.56481,2.32082 h 1.41567 q -0.007,0.0978 -0.007,0.15569 0,0.21724 0.0398,0.43086 0.0435,0.21361 0.13759,0.40189 l -0.55034,0.22447 q -0.0833,-0.16292 -0.13396,-0.33309 -0.0471,-0.17017 -0.076,-0.35845 z" />
              <path
                 inkscape:connector-curvature="0"
                 id="path511"
                 style="font-style:normal;font-variant:normal;font-weight:400;font-size:7.41504288px;font-family:Nyala;fill:#000000;stroke-width:0.50271481"
                 d="m 172.48036,534.99581 q -0.007,0.0978 -0.007,0.15569 0,0.21724 0.0398,0.43085 0.0435,0.21362 0.13759,0.40189 l -0.55034,0.22448 q -0.0833,-0.16293 -0.13396,-0.33309 -0.0471,-0.17017 -0.076,-0.35845 h -1.24549 v 2.84219 h -0.60827 v -2.84219 h -1.25997 q -0.029,0.18828 -0.0797,0.35845 -0.0471,0.17016 -0.13034,0.33309 l -0.55034,-0.22448 q 0.0941,-0.18827 0.13397,-0.40189 0.0435,-0.21361 0.0435,-0.43085 0,-0.0652 -0.007,-0.15569 h 1.85014 v -1.30704 h -1.59307 q 0.007,-0.0905 0.007,-0.15569 0,-0.21724 -0.0435,-0.43085 -0.0398,-0.21362 -0.13396,-0.40189 l 0.55033,-0.22448 q 0.0833,0.16293 0.13035,0.33309 0.0507,0.17017 0.0797,0.35845 h 1.61118 v 1.82841 z" />
              <path
                 inkscape:connector-curvature="0"
                 id="path513"
                 style="font-style:normal;font-variant:normal;font-weight:400;font-size:7.41504288px;font-family:Nyala;fill:#000000;stroke-width:0.50271481"
                 d="m 177.21139,534.13048 q -0.007,0.0978 -0.007,0.15569 0,0.21724 0.0398,0.43085 0.0435,0.21362 0.13758,0.40189 l -0.55033,0.22448 q -0.0833,-0.16292 -0.13397,-0.33309 -0.0471,-0.17017 -0.076,-0.35845 h -0.92688 q -0.0398,0.51775 -0.38016,0.76034 -0.34034,0.23896 -1.01016,0.23896 h -0.48878 l 0.61188,2.70822 h -0.60826 l -0.64447,-2.87115 q -0.0398,-0.17017 -0.0616,-0.30051 -0.0217,-0.13035 -0.0326,-0.26431 -0.0109,-0.13396 -0.0145,-0.28603 -0.004,-0.15569 -0.004,-0.3693 0,-0.61551 0.33309,-0.89792 0.33672,-0.28603 1.0174,-0.28603 0.62999,0 0.94498,0.25345 0.315,0.24982 0.34034,0.79291 z m -3.55183,0.0797 q 0,0.24258 0.0109,0.48154 0.0109,0.23896 0.0471,0.4381 h 0.63361 q 0.3693,0 0.56482,-0.15569 0.19551,-0.15569 0.19551,-0.51413 v -0.19189 q 0,-0.18465 -0.0543,-0.31138 -0.0507,-0.12672 -0.14844,-0.20275 -0.0978,-0.0797 -0.23535,-0.11586 -0.13758,-0.0362 -0.30413,-0.0362 -0.34034,0 -0.52499,0.13759 -0.18465,0.13396 -0.18465,0.47068 z" />
              <path
                 inkscape:connector-curvature="0"
                 id="path515"
                 style="font-style:normal;font-variant:normal;font-weight:400;font-size:7.41504288px;font-family:Nyala;fill:#000000;stroke-width:0.50271481"
                 d="m 180.45798,538.35937 -0.41638,-1.70531 h -1.10067 q -0.14844,0.17017 -0.28241,0.36568 -0.13034,0.1919 -0.23172,0.40551 -0.10137,0.21362 -0.16292,0.44896 -0.0616,0.23172 -0.0688,0.48516 h -0.61188 q 0,-0.37654 0.11224,-0.72774 0.11586,-0.3512 0.30413,-0.66982 0.19189,-0.31861 0.44172,-0.60102 0.24982,-0.28603 0.52499,-0.53585 -0.48155,-0.0507 -0.72051,-0.31862 -0.23534,-0.26792 -0.23534,-0.79292 v -0.0109 q 0,-0.51775 0.23172,-0.79654 0.23172,-0.27878 0.7024,-0.34758 v -1.10067 h 0.60827 v 1.09705 q 0.41637,0.0507 0.64085,0.26431 0.2281,0.21 0.27879,0.60826 h 1.5098 q -0.007,0.0978 -0.007,0.15569 0,0.21724 0.0398,0.43086 0.0435,0.21361 0.13759,0.40189 l -0.55034,0.22447 q -0.0833,-0.16292 -0.13396,-0.33309 -0.0471,-0.17017 -0.076,-0.35845 h -0.92688 q -0.0217,0.15207 -0.0724,0.26793 -0.0471,0.11224 -0.12672,0.21 -0.076,0.0978 -0.18465,0.19189 -0.105,0.0941 -0.24258,0.20276 -0.0833,0.0688 -0.18103,0.14844 -0.0941,0.076 -0.19552,0.16293 h 1.06085 l 0.54309,2.22668 z m -1.19843,-3.03046 q 0.31137,0 0.4743,-0.14482 0.16293,-0.14845 0.16293,-0.49603 -0.004,-0.3512 -0.17017,-0.49965 -0.16293,-0.15206 -0.48879,-0.15206 -0.31137,0 -0.4743,0.14482 -0.15931,0.14121 -0.16293,0.48155 0,0.35844 0.16655,0.51412 0.16655,0.15207 0.49241,0.15207 z" />
              <path
                 inkscape:connector-curvature="0"
                 id="path517"
                 style="font-style:normal;font-variant:normal;font-weight:400;font-size:7.41504288px;font-family:Nyala;fill:#000000;stroke-width:0.50271481"
                 d="m 183.52352,535.48822 q -0.0398,-0.17017 -0.0615,-0.30051 -0.0217,-0.13035 -0.0326,-0.26431 -0.0109,-0.13396 -0.0145,-0.28603 -0.004,-0.15569 -0.004,-0.3693 0,-0.61551 0.3331,-0.89792 0.33672,-0.28603 1.0174,-0.28603 0.65171,0 0.97033,0.27517 0.31861,0.27155 0.31861,0.86171 v 0.28965 q 0,0.59016 -0.34396,0.86533 -0.34396,0.27517 -1.0536,0.27517 h -0.48879 l 0.61189,2.70822 h -1.74876 q -0.029,0.18828 -0.0797,0.35845 -0.0471,0.17017 -0.13034,0.33309 l -0.55033,-0.22447 q 0.0941,-0.18828 0.13396,-0.40189 0.0435,-0.21362 0.0435,-0.43086 0,-0.0652 -0.007,-0.15569 h 1.61117 z m 0.48517,-1.27808 q 0,0.24258 0.0109,0.48154 0.0109,0.23896 0.0471,0.4381 h 0.63361 q 0.3693,0 0.56481,-0.15569 0.19552,-0.15569 0.19552,-0.51413 v -0.19189 q 0,-0.18465 -0.0543,-0.31138 -0.0507,-0.12672 -0.14845,-0.20275 -0.0977,-0.0797 -0.23534,-0.11586 -0.13758,-0.0362 -0.30413,-0.0362 -0.34034,0 -0.52499,0.13759 -0.18465,0.13396 -0.18465,0.47068 z" />
              <path
                 inkscape:connector-curvature="0"
                 id="path519"
                 style="font-style:normal;font-variant:normal;font-weight:400;font-size:7.41504288px;font-family:Nyala;fill:#000000;stroke-width:0.50271481"
                 d="m 188.98503,537.838 h 1.38308 q -0.007,0.0978 -0.007,0.15569 0,0.21724 0.0398,0.43086 0.0435,0.21361 0.13759,0.40189 l -0.55034,0.22447 q -0.0833,-0.16292 -0.13396,-0.33309 -0.0471,-0.17017 -0.076,-0.35845 h -1.40119 v -2.27375 h -0.5974 q -0.69516,0 -1.02464,-0.34758 -0.32585,-0.3512 -0.32585,-1.06084 0,-0.75671 0.34758,-1.13326 0.3512,-0.37654 1.08256,-0.37654 h 1.72342 q 0.69516,0 1.02102,0.34758 0.32948,0.34396 0.32948,1.0536 0,0.75671 -0.3512,1.13688 -0.34759,0.38016 -1.07895,0.38016 h -0.51775 z m 0,-2.27375 h 0.54309 q 0.43448,0 0.62637,-0.23534 0.19189,-0.23896 0.19189,-0.70602 0,-0.49241 -0.19551,-0.71326 -0.19551,-0.22086 -0.61189,-0.22086 h -0.55395 z m -0.60827,-1.87548 h -0.54309 q -0.43448,0 -0.62637,0.23534 -0.19189,0.23172 -0.19189,0.69878 0,0.4924 0.19551,0.71688 0.19552,0.22448 0.61189,0.22448 h 0.55395 z" />
              <path
                 inkscape:connector-curvature="0"
                 id="path521"
                 style="font-style:normal;font-variant:normal;font-weight:400;font-size:7.41504288px;font-family:Nyala;fill:#000000;stroke-width:0.50271481"
                 d="m 192.49954,535.48822 q -0.0398,-0.17017 -0.0615,-0.30051 -0.0217,-0.13035 -0.0326,-0.26431 -0.0109,-0.13396 -0.0145,-0.28603 -0.004,-0.15569 -0.004,-0.3693 0,-0.61551 0.33309,-0.89792 0.33672,-0.28603 1.0174,-0.28603 0.65171,0 0.97033,0.27517 0.31861,0.27155 0.31861,0.86171 v 0.28965 q 0,0.59016 -0.34396,0.86533 -0.34396,0.27517 -1.0536,0.27517 h -0.48878 l 0.61188,2.70822 h -1.74876 q -0.029,0.18828 -0.0797,0.35845 -0.0471,0.17017 -0.13035,0.33309 l -0.55033,-0.22447 q 0.0941,-0.18828 0.13396,-0.40189 0.0435,-0.21362 0.0435,-0.43086 0,-0.0652 -0.007,-0.15569 h 1.61118 z m 0.48516,-1.27808 q 0,0.24258 0.0109,0.48154 0.0109,0.23896 0.0471,0.4381 h 0.63361 q 0.3693,0 0.56482,-0.15569 0.19551,-0.15569 0.19551,-0.51413 v -0.19189 q 0,-0.18465 -0.0543,-0.31138 -0.0507,-0.12672 -0.14844,-0.20275 -0.0978,-0.0797 -0.23534,-0.11586 -0.13759,-0.0362 -0.30414,-0.0362 -0.34034,0 -0.52499,0.13759 -0.18465,0.13396 -0.18465,0.47068 z" />
              <path
                 inkscape:connector-curvature="0"
                 id="path523"
                 style="font-style:normal;font-variant:normal;font-weight:400;font-size:7.41504288px;font-family:Nyala;fill:#000000;stroke-width:0.50271481"
                 d="m 197.18713,535.4846 0.26792,-1.22015 q 0.0145,-0.0616 0.0217,-0.11224 0.007,-0.0543 0.007,-0.11948 0,-0.18466 -0.11224,-0.29327 -0.10862,-0.10862 -0.38017,-0.10862 -0.18827,0 -0.39827,0.0543 -0.20637,0.0507 -0.42361,0.12672 -0.0253,0.20637 -0.076,0.40551 -0.0471,0.19551 -0.14121,0.3693 l -0.55033,-0.22448 q 0.0941,-0.18827 0.13396,-0.39464 0.0434,-0.21 0.0434,-0.39465 0,-0.0724 -0.007,-0.15931 0.42361,-0.14121 0.81464,-0.23534 0.39465,-0.0978 0.74223,-0.0978 0.49964,0 0.74946,0.21362 0.24983,0.21362 0.24983,0.5793 0,0.0797 -0.0109,0.14482 -0.007,0.0616 -0.0254,0.14845 l -0.17017,0.78205 h 1.12964 l -0.74223,3.41063 h -0.60827 l 0.62637,-2.87477 z" />
              <path
                 inkscape:connector-curvature="0"
                 id="path525"
                 style="font-style:normal;font-variant:normal;font-weight:400;font-size:7.41504288px;font-family:Nyala;fill:#000000;stroke-width:0.50271481"
                 d="m 209.24304,538.35937 0.54672,-2.51271 h -1.87911 v -2.00583 h -1.04274 v 2.27376 h -2.65392 q -0.029,-0.21724 -0.0435,-0.40913 -0.0145,-0.1919 -0.0145,-0.36569 0,-0.45258 0.0869,-0.77843 0.0905,-0.32948 0.2462,-0.55396 0.15931,-0.2281 0.37292,-0.3693 0.21724,-0.14121 0.47068,-0.21724 0.25707,-0.076 0.53948,-0.10138 0.28241,-0.0253 0.57568,-0.0253 h 2.20858 q 0.97395,0 1.42653,0.39827 0.45257,0.39465 0.45257,1.16584 0,0.39103 -0.10861,0.87257 l -0.57568,2.62857 z m -2.95805,-2.78426 v -1.73428 q -0.31138,0.007 -0.58654,0.0543 -0.27517,0.0435 -0.48155,0.18828 -0.20275,0.14482 -0.32223,0.41999 -0.11586,0.27154 -0.11586,0.73136 0,0.0797 0.004,0.16655 0.004,0.0833 0.0145,0.17379 z m 3.64597,-0.66981 q 0,-0.26431 -0.0616,-0.44534 -0.0615,-0.18103 -0.16655,-0.29689 -0.105,-0.11948 -0.2462,-0.18103 -0.13759,-0.0652 -0.29327,-0.0941 -0.15569,-0.0326 -0.31862,-0.0362 -0.16293,-0.007 -0.31499,-0.0109 v 1.46636 h 1.36859 q 0.0326,-0.22086 0.0326,-0.40189 z" />
              <path
                 inkscape:connector-curvature="0"
                 id="path527"
                 style="font-style:normal;font-variant:normal;font-weight:400;font-size:7.41504288px;font-family:Nyala;fill:#000000;stroke-width:0.50271481"
                 d="m 211.29481,534.52875 v -1.36135 h 0.6481 v 1.1767 h 0.68067 v 0.18465 l -0.3693,0.58292 q -0.11948,0.18828 -0.19189,0.32224 -0.0688,0.13396 -0.10862,0.26068 -0.0362,0.12673 -0.0507,0.26793 -0.0109,0.1412 -0.0109,0.33672 v 0.21724 q 0,0.7205 0.24982,1.04998 0.25344,0.32947 0.77481,0.32947 0.50327,0 0.76396,-0.34395 0.26068,-0.34396 0.26068,-1.08619 v -3.29839 h 0.60827 v 3.20063 q 0,1.06809 -0.42724,1.57497 -0.42723,0.50327 -1.25997,0.50327 -0.79654,0 -1.18757,-0.45982 -0.39103,-0.45982 -0.39103,-1.44101 v -0.28965 q 0,-0.18465 0.0109,-0.32586 0.0109,-0.14482 0.0471,-0.27878 0.0362,-0.13759 0.10138,-0.27517 0.0688,-0.14121 0.17741,-0.32224 l 0.32224,-0.52499 z" />
              <path
                 inkscape:connector-curvature="0"
                 id="path529"
                 style="font-style:normal;font-variant:normal;font-weight:400;font-size:7.41504288px;font-family:Nyala;fill:#000000;stroke-width:0.50271481"
                 d="m 215.41397,535.15874 q 0,-1.06808 0.41637,-1.57135 0.41999,-0.50689 1.25274,-0.50689 0.79653,0 1.1948,0.48517 0.40189,0.48516 0.40189,1.5098 v 3.2839 h -0.60826 v -3.24408 q 0,-0.77119 -0.26069,-1.12601 -0.26068,-0.35844 -0.78205,-0.35844 -0.50327,0 -0.75671,0.34396 -0.24983,0.34396 -0.24983,1.08618 v 3.29839 h -0.60826 z" />
              <path
                 inkscape:connector-curvature="0"
                 id="path531"
                 style="font-style:normal;font-variant:normal;font-weight:400;font-size:7.41504288px;font-family:Nyala;fill:#000000;stroke-width:0.50271481"
                 d="m 222.74372,533.24343 q -0.007,0.11224 -0.007,0.17741 0,0.21724 0.0398,0.43086 0.0435,0.21361 0.13759,0.40188 l -0.55034,0.22448 q -0.0833,-0.1593 -0.13396,-0.32947 -0.0471,-0.17017 -0.076,-0.36207 -0.39103,0.0109 -0.70603,0.0724 -0.31137,0.0616 -0.55757,0.20275 -0.24259,0.13759 -0.42,0.36568 -0.17379,0.22448 -0.28965,0.56482 -0.11224,0.33672 -0.16655,0.79654 -0.0543,0.45982 -0.0543,1.06446 0,0.2281 0.0109,0.47793 0.0145,0.2462 0.0326,0.50688 h 2.74444 q -0.007,0.0978 -0.007,0.15569 0,0.21724 0.0398,0.43086 0.0435,0.21361 0.13759,0.40189 l -0.55034,0.22447 q -0.0833,-0.16292 -0.13396,-0.33309 -0.0471,-0.17017 -0.076,-0.35845 h -2.72634 q -0.029,-0.3512 -0.0543,-0.70602 -0.0217,-0.35482 -0.0217,-0.67705 0,-0.83999 0.10138,-1.44463 0.105,-0.60465 0.29689,-1.0174 0.19551,-0.41275 0.4743,-0.66257 0.27879,-0.24983 0.62999,-0.38379 0.3512,-0.13396 0.76757,-0.17741 0.41638,-0.0435 0.88344,-0.0471 z" />
              <path
                 inkscape:connector-curvature="0"
                 id="path533"
                 style="font-style:normal;font-variant:normal;font-weight:400;font-size:7.41504288px;font-family:Nyala;fill:#000000;stroke-width:0.50271481"
                 d="m 228.03967,535.15874 q 0,-1.06808 0.41637,-1.57135 0.41999,-0.50689 1.25274,-0.50689 0.79653,0 1.1948,0.48517 0.40189,0.48516 0.40189,1.5098 v 3.2839 h -0.60826 v -3.24408 q 0,-0.77119 -0.26069,-1.12601 -0.26068,-0.35844 -0.78205,-0.35844 -0.50327,0 -0.75672,0.34396 -0.24982,0.34396 -0.24982,1.08618 v 3.29839 h -0.60826 z" />
              <path
                 inkscape:connector-curvature="0"
                 id="path535"
                 style="font-style:normal;font-variant:normal;font-weight:400;font-size:7.41504288px;font-family:Nyala;fill:#000000;stroke-width:0.50271481"
                 d="m 233.65052,538.35937 v -2.28823 h -1.63653 q -0.029,-0.20638 -0.0471,-0.40189 -0.0145,-0.19913 -0.0145,-0.39465 0,-0.49965 0.105,-0.85085 0.105,-0.3512 0.29327,-0.58292 0.18827,-0.23534 0.44896,-0.3693 0.26068,-0.13396 0.57206,-0.19914 0.31137,-0.0688 0.66257,-0.0869 0.3512,-0.0181 0.72051,-0.0181 h 0.60102 q -0.007,0.0977 -0.007,0.16292 0,0.21724 0.0398,0.43086 0.0434,0.21362 0.13758,0.40189 l -0.55034,0.22448 q -0.0833,-0.16293 -0.13396,-0.32948 -0.0471,-0.16655 -0.076,-0.35482 h -0.24983 q -0.52861,0 -0.90153,0.0616 -0.37293,0.0616 -0.60827,0.22086 -0.23534,0.15931 -0.34396,0.43085 -0.10861,0.27155 -0.10861,0.68792 0,0.19552 0.0217,0.43448 h 1.68359 v 2.82046 z" />
              <path
                 inkscape:connector-curvature="0"
                 id="path537"
                 style="font-style:normal;font-variant:normal;font-weight:400;font-size:7.41504288px;font-family:Nyala;fill:#000000;stroke-width:0.50271481"
                 d="m 236.30331,536.25579 q 0,-0.9305 0.315,-1.43015 0.31861,-0.50326 0.95584,-0.6155 l -0.74585,-0.96671 h -1.2636 q 0.007,-0.0905 0.007,-0.15569 0,-0.21723 -0.0434,-0.43085 -0.0398,-0.21362 -0.13396,-0.40189 l 0.55033,-0.22448 q 0.0833,0.16293 0.13034,0.3331 0.0507,0.17017 0.0797,0.35844 h 2.1941 q 0.029,-0.18827 0.076,-0.35844 0.0507,-0.17017 0.13396,-0.3331 l 0.55034,0.22448 q -0.0941,0.18827 -0.13759,0.40189 -0.0398,0.21362 -0.0398,0.43085 0,0.0652 0.007,0.15569 h -1.3867 l 0.76757,0.95947 q 0.62275,0.0978 0.93412,0.58292 0.315,0.48154 0.315,1.3867 v 2.18685 h -0.60827 v -2.14703 q 0,-0.77119 -0.26068,-1.12601 -0.26069,-0.35844 -0.78206,-0.35844 -0.50327,0 -0.75671,0.34396 -0.24982,0.34396 -0.24982,1.08618 v 2.20134 h -0.60827 z" />
              <path
                 inkscape:connector-curvature="0"
                 id="path539"
                 style="font-style:normal;font-variant:normal;font-weight:400;font-size:7.41504288px;font-family:Nyala;fill:#000000;stroke-width:0.50271481"
                 d="m 240.4297,535.90821 q 0,-1.06808 0.41638,-1.57135 0.41999,-0.50689 1.25273,-0.50689 0.79654,0 1.19481,0.48517 0.40189,0.48516 0.40189,1.5098 v 2.01306 h 1.37222 q -0.007,0.0978 -0.007,0.15569 0,0.21724 0.0398,0.43086 0.0434,0.21361 0.13759,0.40189 l -0.55034,0.22447 q -0.0833,-0.16292 -0.13396,-0.33309 -0.0471,-0.17017 -0.076,-0.35845 h -1.39032 v -2.49461 q 0,-0.77119 -0.26068,-1.12601 -0.26069,-0.35844 -0.78206,-0.35844 -0.50326,0 -0.75671,0.34396 -0.24982,0.34396 -0.24982,1.08618 v 2.54892 h -0.60827 z m 3.32012,-2.66478 h -3.37443 q 0.007,-0.0905 0.007,-0.15569 0,-0.21723 -0.0435,-0.43085 -0.0398,-0.21362 -0.13396,-0.40189 l 0.55033,-0.22448 q 0.0833,0.16293 0.13034,0.3331 0.0507,0.17017 0.0797,0.35844 h 2.1941 q 0.029,-0.18827 0.076,-0.35844 0.0507,-0.17017 0.13396,-0.3331 l 0.55034,0.22448 q -0.0941,0.18827 -0.13759,0.40189 -0.0398,0.21362 -0.0398,0.43085 0,0.029 0,0.0688 0.004,0.0398 0.007,0.0869 z" />
              <path
                 inkscape:connector-curvature="0"
                 id="path541"
                 style="font-style:normal;font-variant:normal;font-weight:400;font-size:7.41504288px;font-family:Nyala;fill:#000000;stroke-width:0.50271481"
                 d="m 247.07877,532.96102 h 0.61913 l 1.61118,5.39835 h -0.61551 l -1.05722,-3.52649 q -0.32948,0.12673 -0.56844,0.2969 -0.23896,0.16655 -0.41637,0.39102 -0.17741,0.22086 -0.30051,0.50327 -0.11948,0.28241 -0.19552,0.62999 h 0.27517 q 0.55758,0 0.81826,0.21 0.26069,0.20637 0.26069,0.62274 0,0.4381 -0.27155,0.65534 -0.27154,0.21723 -0.85085,0.21723 h -0.9667 q 0,-0.62998 0.0543,-1.13687 0.0579,-0.50689 0.17017,-0.90878 0.11586,-0.40551 0.28603,-0.71326 0.17379,-0.31138 0.40189,-0.55034 0.22809,-0.23896 0.5105,-0.41275 0.28603,-0.17741 0.64448,-0.31137 z m -0.62998,4.87698 q 0.26068,0 0.36568,-0.0833 0.10862,-0.0833 0.10862,-0.2462 0,-0.17379 -0.11586,-0.25345 -0.11586,-0.0797 -0.38741,-0.0797 h -0.34396 q -0.0217,0.16293 -0.0326,0.32586 -0.0109,0.16292 -0.0145,0.33671 z" />
            </g>
          </g>
        </g>
      </g>
    </g>
  </g>
</svg>
